<svg id="Layer_1" data-name="Layer 1" xmlns="http://www.w3.org/2000/svg" viewBox="0 0 200 85"><defs><style>.cls-1{fill:#fff;stroke:#cccbcb;stroke-miterlimit:10;}.cls-2{font-size:14px;fill:#666;font-family:MyriadPro-Regular, Myriad Pro;}.cls-3{letter-spacing:-0.03em;}.cls-4{letter-spacing:0em;}.cls-5{letter-spacing:0em;}.cls-6{letter-spacing:0em;}.cls-7{letter-spacing:0em;}</style></defs><title>Artboard 1 copy</title><path class="cls-1" d="M142.75,47.27c-.51,10.85-10.5,19.51-22.76,19.51a24.83,24.83,0,0,1-9.83-2C107.14,75,96.7,82.61,84.29,82.61a27.8,27.8,0,0,1-21.6-9.82,29.25,29.25,0,0,1-11.95,2.52C36,75.31,24,64.59,24,51.37h0c-.7.07-1.42.12-2.14.12C11.5,51.48,3.13,44,3.13,34.74S11.5,18,21.84,18A20.63,20.63,0,0,1,29,19.27c2.9-5.88,9.47-10,17.12-10A20,20,0,0,1,57.86,13,37.8,37.8,0,0,1,84.17,2.7a38.4,38.4,0,0,1,22.19,6.9,20.3,20.3,0,0,1,9.55-2.35,19.2,19.2,0,0,1,16.23,8.41A20.39,20.39,0,0,1,140.39,14c10.33,0,18.71,7.49,18.71,16.73C159.1,39.2,152,46.24,142.75,47.27Z"/><ellipse class="cls-1" cx="164.96" cy="51.2" rx="9" ry="12.5" transform="translate(105.45 213.35) rotate(-87.09)"/><ellipse class="cls-1" cx="181.33" cy="36.94" rx="5.62" ry="7.8" transform="translate(63.12 179.31) rotate(-61.81)"/><circle class="cls-1" cx="191.58" cy="22.78" r="4.72"/><text class="cls-2" transform="translate(40.21 42.65) scale(0.9 1)"><tspan class="cls-3">F</tspan><tspan x="6.45" y="0">ind </tspan><tspan class="cls-4" x="28.36" y="0">R</tspan><tspan x="35.95" y="0">estau</tspan><tspan class="cls-5" x="67.61" y="0">r</tspan><tspan x="72.11" y="0">a</tspan><tspan class="cls-6" x="78.86" y="0">n</tspan><tspan class="cls-7" x="86.58" y="0">ts</tspan></text></svg>