<svg id="Layer_1" data-name="Layer 1" xmlns="http://www.w3.org/2000/svg" viewBox="0 0 200 85"><defs><style>.cls-1{fill:#fff;stroke:#cccbcb;stroke-miterlimit:10;}.cls-2{font-size:14px;fill:#666;font-family:MyriadPro-Regular, Myriad Pro;}.cls-3{letter-spacing:-0.01em;}.cls-4{letter-spacing:0em;}.cls-5{letter-spacing:0.01em;}</style></defs><title>Artboard 1 copy 2</title><path class="cls-1" d="M57.68,48.27c.51,10.85,10.5,19.51,22.76,19.51a24.83,24.83,0,0,0,9.83-2c3,10.25,13.46,17.82,25.87,17.82a27.83,27.83,0,0,0,21.61-9.82,29.17,29.17,0,0,0,11.94,2.52c14.78,0,26.76-10.72,26.76-23.94h0c.7.07,1.42.12,2.14.12,10.34,0,18.71-7.5,18.71-16.74S188.93,19,178.59,19a20.63,20.63,0,0,0-7.13,1.26c-2.9-5.88-9.47-10-17.12-10A20,20,0,0,0,142.57,14,37.8,37.8,0,0,0,116.26,3.7a38.4,38.4,0,0,0-22.19,6.9,20.3,20.3,0,0,0-9.55-2.35,19.2,19.2,0,0,0-16.23,8.41A20.39,20.39,0,0,0,60,15c-10.33,0-18.71,7.49-18.71,16.73C41.33,40.2,48.46,47.24,57.68,48.27Z"/><ellipse class="cls-1" cx="35.47" cy="52.2" rx="12.5" ry="9" transform="translate(-2.61 1.87) rotate(-2.91)"/><ellipse class="cls-1" cx="19.1" cy="37.94" rx="7.8" ry="5.62" transform="translate(-15.66 13.52) rotate(-28.19)"/><circle class="cls-1" cx="8.85" cy="23.78" r="4.72"/><text class="cls-2" transform="translate(99.21 43.65) scale(0.9 1)"><tspan class="cls-3">C</tspan><tspan class="cls-4" x="7.97" y="0">onne</tspan><tspan class="cls-5" x="38.21" y="0">c</tspan><tspan x="44.66" y="0">t</tspan></text></svg>