<svg id="Layer_1" data-name="Layer 1" xmlns="http://www.w3.org/2000/svg" viewBox="0 0 200 85"><defs><style>.cls-1{fill:#fff;stroke:#cccbcb;stroke-miterlimit:10;}.cls-2{font-size:12px;fill:#666667;font-family:Roboto-Regular, Roboto;}</style></defs><title>Artboard 1</title><path class="cls-1" d="M55.9,46.77c.51,10.85,10.51,19.51,22.76,19.51a24.92,24.92,0,0,0,9.84-2c3,10.25,13.45,17.82,25.86,17.82A27.83,27.83,0,0,0,136,72.29a29.17,29.17,0,0,0,11.94,2.52c14.78,0,26.76-10.72,26.76-23.94h0c.7.07,1.42.12,2.15.12,10.33,0,18.7-7.5,18.7-16.74s-8.37-16.73-18.7-16.73a20.65,20.65,0,0,0-7.14,1.26c-2.9-5.88-9.47-10-17.12-10a20,20,0,0,0-11.77,3.73A37.78,37.78,0,0,0,114.48,2.2,38.43,38.43,0,0,0,92.29,9.1a20.27,20.27,0,0,0-9.55-2.35,19.18,19.18,0,0,0-16.22,8.41,20.44,20.44,0,0,0-8.26-1.71c-10.33,0-18.71,7.49-18.71,16.73C39.55,38.7,46.68,45.74,55.9,46.77Z"/><ellipse class="cls-1" cx="33.69" cy="50.7" rx="12.5" ry="9" transform="translate(-2.53 1.78) rotate(-2.91)"/><ellipse class="cls-1" cx="17.32" cy="36.44" rx="7.8" ry="5.62" transform="translate(-15.16 12.51) rotate(-28.19)"/><circle class="cls-1" cx="7.07" cy="22.28" r="4.72"/><text class="cls-2" transform="translate(85.88 42.15)">Meet People</text></svg>