<?xml version="1.0" encoding="utf-8"?><svg id="tickAnimation" image-rendering="optimizeQuality" baseProfile="basic" version="1.1" x="0px" y="0px" width="180" height="180" xmlns="http://www.w3.org/2000/svg" xmlns:xlink="http://www.w3.org/1999/xlink"><defs><g id="Symbol 1_1.8" overflow="visible"><g><use xlink:href="#Layer1_0_1_STROKES"/></g></g><g id="Symbol-1f8o8r1" overflow="visible"><use xlink:href="#Symbol 1_1.8"/></g><g id="Symbol 1_1" overflow="visible"><g><use xlink:href="#Layer2_0_1_STROKES"/></g></g><g id="Symbol-1f9o9r1" overflow="visible"><use xlink:href="#Symbol 1_1"/></g><g id="Symbol 1_0.10" overflow="visible"><g><use xlink:href="#Layer3_0_1_STROKES"/></g></g><g id="Symbol 1_1.10" overflow="visible"><g><use xlink:href="#Layer4_0_1_STROKES"/></g></g><g id="Symbol-1f10o10r1" overflow="visible"><use xlink:href="#Symbol 1_1.10"/><use xlink:href="#Symbol 1_0.10"/></g><g id="Symbol 1_0.11" overflow="visible"><g><use xlink:href="#Layer5_0_1_STROKES"/></g></g><g id="Symbol-1f11o11r1" overflow="visible"><use xlink:href="#Symbol 1_1.10"/><use xlink:href="#Symbol 1_0.11"/></g><g id="Symbol 1_0.12" overflow="visible"><g><use xlink:href="#Layer6_0_1_STROKES"/></g></g><g id="Symbol-1f12o12r1" overflow="visible"><use xlink:href="#Symbol 1_1.10"/><use xlink:href="#Symbol 1_0.12"/></g><g id="Symbol 1_0.13" overflow="visible"><g><use xlink:href="#Layer7_0_1_STROKES"/></g></g><g id="Symbol-1f13o13r1" overflow="visible"><use xlink:href="#Symbol 1_1.10"/><use xlink:href="#Symbol 1_0.13"/></g><g id="Symbol 1_0.14" overflow="visible"><g><use xlink:href="#Layer8_0_1_STROKES"/></g></g><g id="Symbol-1f14o14r1" overflow="visible"><use xlink:href="#Symbol 1_1.10"/><use xlink:href="#Symbol 1_0.14"/></g><g id="Symbol 4_0.0" overflow="visible"><g transform="matrix(.6 0 0 .6 0 0)"><use xlink:href="#Layer9_0_FILL"/></g></g><g id="Symbol-4" overflow="visible"><use xlink:href="#Symbol 4_0.0"/></g><g id="Symbol 3_0.0" overflow="visible"><g transform="matrix(.8 0 0 .8 0 0)"><use xlink:href="#Layer10_0_FILL"/></g></g><g id="Symbol-5" overflow="visible"><use xlink:href="#Symbol 3_0.0"/></g><g id="Symbol 2_0.0" overflow="visible"><g transform="matrix(1.1 0 0 1.1 0 0)"><use xlink:href="#Layer11_0_FILL"/></g></g><g id="Symbol-6" overflow="visible"><use xlink:href="#Symbol 2_0.0"/></g><g id="Layer11_0_FILL"><path fill="#36C0EF" stroke="none" d="M55.1 -55.1Q32.2 -77 0 -77 -32.2 -77 -55.1 -55.1L-55.1 -55.1Q-77 -32.2 -77 .0 -77 32.2 -55.1 55.1 -32.2 78 0 78 32.2 78 55.1 55.1 78 32.2 78 .0 78 -32.2 55.1 -55.1M0 -67.3Q27 -67.3 47.6 -47.6 67.3 -27.8 67.3 .0 67.3 27.8 47.6 47.6L47.6 47.6Q27.8 67.4 0 67.4 -27 67.4 -47.6 47.6 -67.3 27 -67.3 .0 -67.3 -27.8 -47.6 -47.6 -27.8 -67.3 0 -67.3Z"/></g><g id="Layer10_0_FILL"><path fill="#36C0EF" stroke="none" d="M42.3 -42.3Q24.8 -59 0 -59 -24.7 -59 -42.3 -42.3 -59 -24.8 -59 0 -59 24.8 -42.3 42.3 -24.7 59 0 59 24.8 59 42.3 42.3 59 24.8 59 0 59 -24.8 42.3 -42.3M0 -53.3Q22.1 -53.3 37.7 -37.7 53.3 -22.0 53.3 0 53.3 22.0 37.7 37.6 22.1 53.3 0 53.3 -22.0 53.3 -37.6 37.6 -53.2 22.0 -53.2 0 -53.2 -22.0 -37.6 -37.7 -22.0 -53.3 0 -53.3Z"/></g><g id="Layer9_0_FILL"><path fill="#36C0EF" stroke="none" d="M30.6 -30.6Q17 -43.3 0 -43.3 -17 -43.3 -30.6 -30.6 -43.3 -17 -43.3 0 -43.3 17 -30.6 30.6 -17 43.3 0 43.3 17 43.3 30.6 30.6 43.3 17 43.3 0 43.3 -17 30.6 -30.6M0 -39.7Q16.4 -39.7 28.0 -28.0 39.6 -16.4 39.6 0 39.6 16.4 28.0 28.0 16.4 39.7 0 39.7 -16.4 39.7 -28.0 28.0 -39.7 16.4 -39.7 0 -39.7 -16.4 -28.0 -28.0 -16.4 -39.7 0 -39.7Z"/></g><path id="Layer8_0_1_STROKES" stroke="#FDFEFD" stroke-width="10" stroke-linejoin="miter" stroke-linecap="square" stroke-miterlimit="3" fill="none" d="M-17.7 18.6L44.1 -41.6"/><path id="Layer7_0_1_STROKES" stroke="#FDFEFD" stroke-width="10" stroke-linejoin="miter" stroke-linecap="square" stroke-miterlimit="3" fill="none" d="M-17.7 18.6L40.6 -38.1"/><path id="Layer6_0_1_STROKES" stroke="#FDFEFD" stroke-width="10" stroke-linejoin="miter" stroke-linecap="square" stroke-miterlimit="3" fill="none" d="M-17.7 18.6L30 -27.7"/><path id="Layer5_0_1_STROKES" stroke="#FDFEFD" stroke-width="10" stroke-linejoin="miter" stroke-linecap="square" stroke-miterlimit="3" fill="none" d="M-17.7 18.6L12.3 -10.4"/><path id="Layer4_0_1_STROKES" stroke="#FDFEFD" stroke-width="10" stroke-linejoin="miter" stroke-linecap="square" stroke-miterlimit="3" fill="none" d="M-40.3 -5.1L-17.7 18.6"/><path id="Layer3_0_1_STROKES" stroke="#FDFEFD" stroke-width="10" stroke-linejoin="miter" stroke-linecap="square" stroke-miterlimit="3" fill="none" d="M-17.7 18.6L-12.5 13.8"/><path id="Layer2_0_1_STROKES" stroke="#FDFEFD" stroke-width="10" stroke-linejoin="miter" stroke-linecap="square" stroke-miterlimit="3" fill="none" d="M-40.3 -5.2L-25.3 10.8"/><path id="Layer1_0_1_STROKES" stroke="#FDFEFD" stroke-width="10" stroke-linejoin="miter" stroke-linecap="square" stroke-miterlimit="3" fill="none" d="M-40.3 -5.2L-33 2"/></defs><g id="Scene-1r1" overflow="visible"><use xlink:href="#Symbol-6" transform="translate(90 90)"><animateTransform attributeName="transform" additive="replace" type="translate" dur="0.6s" keyTimes="0;.4199;.42;.4899;.49;.5599;.56;.6899;.69;1" values="90,90;90,90;89,89;89,89;90,90;90,90;89,89;89,89;90,90;90,90" calcMode="discrete" fill="freeze"/><animateTransform attributeName="transform" additive="sum" type="scale" dur="0.6s" keyTimes="0;.0699;.07;.1399;.14;.2099;.21;.2799;.28;.3499;.35;.4899;.49;.5599;.56;1" values="0,0;0,0;.2,.2;.2,.2;.4,.4;.4,.4;.5,.5;.5,.5;.7,.7;.7,.7;.8,.8;.8,.8;1,.9;1,.9;1,1;1,1" calcMode="discrete" fill="freeze"/><animateTransform attributeName="transform" additive="sum" type="translate" dur="0.6s" keyTimes="0;.0699;.07;.1399;.14;.2099;.21;.2799;.28;.3499;.35;.4199;.42;.4899;.49;.5599;.56;.6899;.69;1" values="-1.05,-1.05;-1.05,-1.05;-.45,-.45;-.45,-.45;-.15,-.15;-.15,-.15;-.1,-.1;-.1,-.1;-.2,-.2;-.2,-.2;-.15,-.15;-.15,-.15;-.05,-.05;-.05,-.05;-.1,-.1;-.1,-.1;-.05,-.05;-.05,-.05;0,0;0,0" calcMode="discrete" fill="freeze"/></use><use xlink:href="#Symbol-5" transform="translate(90 90)"><animateTransform attributeName="transform" additive="replace" type="translate" dur="0.6s" keyTimes="0;.2099;.21;.2799;.28;.4199;.42;.4899;.49;.6899;.69;.8299;.83;1" values="90,90;90,90;89,89;89,89;90,90;90,90;90,90.1;90,90.1;90,90;90,90;89,90;89,90;90,90;90,90" calcMode="discrete" fill="freeze"/><animateTransform attributeName="transform" additive="sum" type="scale" dur="0.6s" keyTimes="0;.0699;.07;.1399;.14;.2099;.21;.2799;.28;.3499;.35;.4199;.42;.5599;.56;.6899;.69;1" values="0,0;0,0;.2,.2;.2,.2;.3,.3;.3,.3;.5,.5;.5,.5;.6,.6;.6,.6;.7,.7;.7,.7;.8,.8;.8,.8;1,.9;1,.9;1,1;1,1" calcMode="discrete" fill="freeze"/><animateTransform attributeName="transform" additive="sum" type="translate" dur="0.6s" keyTimes="0;.0699;.07;.1399;.14;.2099;.21;.4199;.42;.4899;.49;.5599;.56;.6299;.63;.6899;.69;.8299;.83;1" values="-1.3,-1.3;-1.3,-1.3;-.55,-.55;-.55,-.55;-.35,-.35;-.35,-.35;-.1,-.1;-.1,-.1;-.15,-.15;-.15,-.15;-.1,-.05;-.1,-.05;-.15,-.15;-.15,-.15;-.1,-.1;-.1,-.1;-.05,-.05;-.05,-.05;0,0;0,0" calcMode="discrete" fill="freeze"/></use><use xlink:href="#Symbol-4" transform="translate(90 90)"><animateTransform attributeName="transform" additive="replace" type="translate" dur="0.6s" keyTimes="0;.4199;.42;.6299;.63;1" values="90,90;90,90;90.1,90.1;90.1,90.1;90,90;90,90" calcMode="discrete" fill="freeze"/><animateTransform attributeName="transform" additive="sum" type="scale" dur="0.6s" keyTimes="0;.0699;.07;.1399;.14;.2099;.21;.2799;.28;.3499;.35;.4199;.42;.4899;.49;.6299;.63;.7599;.76;1" values="0,0;0,0;.2,.2;.2,.2;.3,.3;.3,.3;.4,.4;.4,.4;.5,.5;.5,.5;.6,.6;.6,.6;.7,.7;.7,.7;.8,.8;.8,.8;1,.9;1,.9;1,1;1,1" calcMode="discrete" fill="freeze"/><animateTransform attributeName="transform" additive="sum" type="translate" dur="0.6s" keyTimes="0;.0699;.07;.1399;.14;.2099;.21;.2799;.28;.3499;.35;.4199;.42;.6299;.63;.7599;.76;.8299;.83;.8999;1;.9699;.97;1" values="-1.3,-1.3;-1.3,-1.3;-.6,-.6;-.6,-.6;-.35,-.35;-.35,-.35;-.25,-.25;-.25,-.25;-.15,-.15;-.15,-.15;-.1,-.1;-.1,-.1;-.15,-.15;-.15,-.15;-.05,-.05;-.05,-.05;-.1,-.1;-.1,-.1;-.05,-.05;-.05,-.05;-.15,-.15;-.15,-.15;0,0;0,0" calcMode="discrete" fill="freeze"/></use><g><use xlink:href="#Symbol-1f14o14r1" transform="matrix(.3 0 0 .3 90.8 92.3)"/><animate attributeName="display" fill="freeze" repeatCount="1" dur="0.6s" keyTimes="0;1;1" values="none;inline;inline"/></g><g display="none"><use xlink:href="#Symbol-1f13o13r1" transform="matrix(.3 0 0 .3 90.8 92.4)"/><animate attributeName="display" fill="freeze" repeatCount="1" dur="0.6s" keyTimes="0;1;.9;1" values="none;inline;none;none"/></g><g display="none"><use xlink:href="#Symbol-1f12o12r1" transform="matrix(.3 0 0 .3 90.8 92.3)"/><animate attributeName="display" fill="freeze" repeatCount="1" dur="0.6s" keyTimes="0;.8;1;1" values="none;inline;none;none"/></g><g display="none"><use xlink:href="#Symbol-1f11o11r1" transform="matrix(.3 0 0 .3 90.8 92.3)"/><animate attributeName="display" fill="freeze" repeatCount="1" dur="0.6s" keyTimes="0;.7;.8;1" values="none;inline;none;none"/></g><g display="none"><use xlink:href="#Symbol-1f10o10r1" transform="matrix(.3 0 0 .3 90.8 92.3)"/><animate attributeName="display" fill="freeze" repeatCount="1" dur="0.6s" keyTimes="0;.7;.7;1" values="none;inline;none;none"/></g><g display="none"><use xlink:href="#Symbol-1f9o9r1" transform="matrix(.2 0 0 .2 90.8 92.3)"/><animate attributeName="display" fill="freeze" repeatCount="1" dur="0.6s" keyTimes="0;.6;.7;1" values="none;inline;none;none"/></g><g display="none"><use xlink:href="#Symbol-1f8o8r1" transform="matrix(.2 0 0 .2 90.8 92.3)"/><animate attributeName="display" fill="freeze" repeatCount="1" dur="0.6s" keyTimes="0;.5;.6;1" values="none;inline;none;none"/></g></g></svg>